<svg width="79" height="43" viewBox="0 0 79 43" fill="none" xmlns="http://www.w3.org/2000/svg">
<path fill-rule="evenodd" clip-rule="evenodd" d="M31.3263 18.3999C28.3192 14.7324 23.3688 6.79016 30.1092 4.02056C34.3984 2.25887 40.887 3.49385 43.5793 7.50533C46.9533 12.5331 42.1808 17.3765 37.9783 19.7184C36.7688 20.393 35.4988 20.9709 34.1917 21.4788C33.1796 20.5076 32.2167 19.4856 31.3263 18.3999ZM0.170434 26.1352C10.6547 28.3459 22.5065 28.2809 32.9193 24.9188C34.7866 26.5327 36.6776 27.9202 38.3347 29.0017C47.9616 35.2838 60.8121 39.0848 72.3374 38.7355C73.5969 38.6969 74.0303 37.2344 73.5114 36.3382C73.8575 36.8019 74.198 37.27 74.5328 37.7425C73.2657 38.5659 71.9099 39.1642 70.3903 39.5605C69.4616 39.8023 68.407 39.7922 67.5132 40.1009C66.9808 40.2846 66.9877 40.6862 66.3803 40.8074C66.1865 40.8461 66.0862 41.12 66.3017 41.2181C66.8918 41.4863 67.0756 42.0021 67.6771 42.2456C68.6244 42.6296 70.3918 42.4244 71.3547 42.2833C73.7527 41.9318 75.9729 40.9435 77.9628 39.5854C78.7937 39.0178 78.881 37.958 78.4083 37.1377C77.2499 35.1266 75.8059 33.2797 74.2631 31.5509C72.926 30.0535 71.5038 28.2659 69.6316 27.4637C68.1641 26.834 66.7981 28.4254 67.6429 29.7822C68.6735 31.4382 70.4074 32.633 71.7053 34.0944C72.2619 34.7208 72.7773 35.3729 73.2796 36.0346C73.0874 35.8513 72.8349 35.7189 72.5161 35.6724C62.2151 34.1703 52.3847 33.0198 43.0688 27.9221C40.7801 26.6709 38.5893 25.2175 36.5598 23.569C36.7806 23.4773 37.0075 23.3944 37.228 23.2994C44.4727 20.16 52.2808 11.5551 44.9625 4.15144C39.7689 -1.10423 25.9701 -2.44902 23.7164 6.57014C22.2762 12.3326 25.9653 18.1391 30.5338 22.702C27.2813 23.6334 23.9095 24.244 20.686 24.791C13.9662 25.9323 7.04936 26.115 0.253822 25.7096C-0.0156389 25.6937 -0.111618 26.076 0.170434 26.1352Z" fill="black"/>
</svg>
