<svg width="37" height="37" viewBox="0 0 37 37" fill="none" xmlns="http://www.w3.org/2000/svg">
<rect width="37" height="37" rx="18.5" fill="#A53DFF"/>
<g clip-path="url(#clip0_103_203)">
<path d="M15.5005 18.5C15.5005 16.8432 16.8432 15.4998 18.5 15.4998C20.1568 15.4998 21.5002 16.8432 21.5002 18.5C21.5002 20.1568 20.1568 21.5002 18.5 21.5002C16.8432 21.5002 15.5005 20.1568 15.5005 18.5ZM13.8786 18.5C13.8786 21.0524 15.9476 23.1214 18.5 23.1214C21.0524 23.1214 23.1214 21.0524 23.1214 18.5C23.1214 15.9476 21.0524 13.8786 18.5 13.8786C15.9476 13.8786 13.8786 15.9476 13.8786 18.5ZM22.2243 13.6954C22.2243 14.2915 22.7078 14.7757 23.3046 14.7757C23.9007 14.7757 24.3849 14.2915 24.3849 13.6954C24.3849 13.0993 23.9015 12.6158 23.3046 12.6158C22.7078 12.6158 22.2243 13.0993 22.2243 13.6954ZM14.8637 25.8258C13.9862 25.7858 13.5093 25.6397 13.1923 25.5161C12.7721 25.3525 12.4726 25.1577 12.1571 24.8429C11.8423 24.5281 11.6468 24.2286 11.4839 23.8084C11.3603 23.4914 11.2142 23.0145 11.1742 22.1371C11.1306 21.1884 11.1219 20.9034 11.1219 18.5C11.1219 16.0966 11.1313 15.8124 11.1742 14.8629C11.2142 13.9855 11.3611 13.5093 11.4839 13.1916C11.6475 12.7714 11.8423 12.4719 12.1571 12.1564C12.4719 11.8416 12.7714 11.646 13.1923 11.4832C13.5093 11.3596 13.9862 11.2135 14.8637 11.1735C15.8124 11.1299 16.0973 11.1212 18.5 11.1212C20.9034 11.1212 21.1876 11.1306 22.1371 11.1735C23.0145 11.2135 23.4907 11.3603 23.8084 11.4832C24.2286 11.646 24.5281 11.8416 24.8436 12.1564C25.1584 12.4712 25.3532 12.7714 25.5168 13.1916C25.6404 13.5086 25.7865 13.9855 25.8265 14.8629C25.8701 15.8124 25.8788 16.0966 25.8788 18.5C25.8788 20.9027 25.8701 21.1876 25.8265 22.1371C25.7865 23.0145 25.6397 23.4914 25.5168 23.8084C25.3532 24.2286 25.1584 24.5281 24.8436 24.8429C24.5288 25.1577 24.2286 25.3525 23.8084 25.5161C23.4914 25.6397 23.0145 25.7858 22.1371 25.8258C21.1884 25.8694 20.9034 25.8781 18.5 25.8781C16.0973 25.8781 15.8124 25.8694 14.8637 25.8258ZM14.7895 9.55452C13.8313 9.59814 13.1771 9.75008 12.6049 9.97254C12.0132 10.2023 11.5116 10.5105 11.0107 11.0107C10.5105 11.5108 10.2023 12.0124 9.97254 12.6049C9.75008 13.1771 9.59814 13.8313 9.55452 14.7895C9.51018 15.7491 9.5 16.0559 9.5 18.5C9.5 20.9441 9.51018 21.2509 9.55452 22.2105C9.59814 23.1687 9.75008 23.8229 9.97254 24.3951C10.2023 24.9868 10.5098 25.4892 11.0107 25.9893C11.5108 26.4895 12.0124 26.797 12.6049 27.0275C13.1778 27.2499 13.8313 27.4019 14.7895 27.4455C15.7498 27.4891 16.0559 27.5 18.5 27.5C20.9448 27.5 21.2509 27.4898 22.2105 27.4455C23.1687 27.4019 23.8229 27.2499 24.3951 27.0275C24.9868 26.797 25.4885 26.4895 25.9893 25.9893C26.4895 25.4892 26.797 24.9868 27.0275 24.3951C27.2499 23.8229 27.4026 23.1687 27.4455 22.2105C27.4891 21.2502 27.4993 20.9441 27.4993 18.5C27.4993 16.0559 27.4891 15.7491 27.4455 14.7895C27.4019 13.8313 27.2499 13.1771 27.0275 12.6049C26.797 12.0132 26.4895 11.5116 25.9893 11.0107C25.4892 10.5105 24.9868 10.2023 24.3958 9.97254C23.8229 9.75008 23.1687 9.59742 22.2112 9.55452C21.2516 9.5109 20.9448 9.5 18.5007 9.5C16.0559 9.5 15.7498 9.51018 14.7895 9.55452Z" fill="white"/>
</g>
<defs>
<clipPath id="clip0_103_203">
<rect width="18" height="18" fill="white" transform="translate(9.5 9.5)"/>
</clipPath>
</defs>
</svg>
