<svg width="44" height="44" viewBox="0 0 44 44" fill="none" xmlns="http://www.w3.org/2000/svg">
<g clip-path="url(#clip0_106_356)">
<circle cx="22" cy="22" r="22" fill="white"/>
<path d="M22 0C9.85162 0 0 9.85162 0 22C0 34.1484 9.85162 44 22 44C34.1484 44 44 34.1484 44 22C44 9.85162 34.1484 0 22 0ZM33.037 16.8328V19.8117C31.6323 19.8122 30.2675 19.5369 28.9804 18.9939C28.1527 18.6445 27.3816 18.1943 26.6763 17.6502L26.6974 26.8191C26.6886 28.8838 25.8717 30.8236 24.3934 32.2848C23.1902 33.4742 21.6657 34.2305 20.0133 34.4754C19.625 34.5329 19.2299 34.5623 18.8303 34.5623C17.0614 34.5623 15.3821 33.9893 14.0084 32.9321C13.7499 32.7331 13.5027 32.5173 13.2673 32.2848C11.6651 30.7013 10.8389 28.5551 10.978 26.2972C11.0841 24.5786 11.7722 22.9395 12.9193 21.6548C14.437 19.9548 16.5602 19.0112 18.8303 19.0112C19.2299 19.0112 19.625 19.0412 20.0133 19.0987V20.2V23.2639C19.6451 23.1425 19.252 23.0757 18.8426 23.0757C16.7686 23.0757 15.0906 24.7678 15.1216 26.8434C15.1413 28.1713 15.8667 29.3322 16.9366 29.9721C17.4395 30.2729 18.0179 30.4592 18.6352 30.493C19.1189 30.5196 19.5833 30.4522 20.0133 30.3102C21.4951 29.8207 22.5641 28.4289 22.5641 26.7873L22.569 20.6473V9.43766H26.6713C26.6753 9.84414 26.7165 10.2407 26.7932 10.6251C27.1028 12.1806 27.9796 13.5302 29.1999 14.4502C30.264 15.2528 31.589 15.7285 33.0251 15.7285C33.026 15.7285 33.0379 15.7285 33.0369 15.7276V16.8328H33.037Z" fill="#A53DFF"/>
</g>
<defs>
<clipPath id="clip0_106_356">
<rect width="44" height="44" fill="white"/>
</clipPath>
</defs>
</svg>
