<svg width="38" height="38" viewBox="0 0 38 38" fill="none" xmlns="http://www.w3.org/2000/svg">
<g clip-path="url(#clip0_106_345)">
<rect width="38" height="38" rx="5" fill="white"/>
<path d="M32.8182 0H5.18182C3.80751 0 2.4895 0.54594 1.51772 1.51772C0.54594 2.4895 0 3.80751 0 5.18182L0 32.8182C0 34.1925 0.54594 35.5105 1.51772 36.4823C2.4895 37.4541 3.80751 38 5.18182 38H32.8182C34.1925 38 35.5105 37.4541 36.4823 36.4823C37.4541 35.5105 38 34.1925 38 32.8182V5.18182C38 3.80751 37.4541 2.4895 36.4823 1.51772C35.5105 0.54594 34.1925 0 32.8182 0ZM12.9545 30.0718C12.9548 30.1772 12.9343 30.2816 12.8942 30.379C12.8541 30.4765 12.7951 30.565 12.7207 30.6396C12.6463 30.7142 12.5579 30.7734 12.4606 30.8138C12.3632 30.8542 12.2589 30.875 12.1535 30.875H8.74C8.63444 30.8753 8.52987 30.8547 8.4323 30.8144C8.33472 30.7742 8.24607 30.715 8.17143 30.6404C8.09679 30.5658 8.03764 30.4771 7.99738 30.3795C7.95711 30.2819 7.93653 30.1774 7.93682 30.0718V15.7614C7.93682 15.5483 8.02144 15.3441 8.17206 15.1934C8.32269 15.0428 8.52698 14.9582 8.74 14.9582H12.1535C12.3662 14.9588 12.5699 15.0436 12.7201 15.1942C12.8702 15.3448 12.9545 15.5487 12.9545 15.7614V30.0718ZM10.4457 13.6023C9.80514 13.6023 9.17898 13.4123 8.64639 13.0565C8.1138 12.7006 7.6987 12.1948 7.45357 11.603C7.20845 11.0112 7.14431 10.36 7.26928 9.73181C7.39424 9.10358 7.70269 8.52651 8.15562 8.07358C8.60855 7.62064 9.18562 7.31219 9.81386 7.18723C10.4421 7.06227 11.0933 7.1264 11.6851 7.37153C12.2768 7.61665 12.7826 8.03176 13.1385 8.56435C13.4944 9.09694 13.6843 9.72309 13.6843 10.3636C13.6843 11.2226 13.3431 12.0463 12.7357 12.6537C12.1284 13.2611 11.3046 13.6023 10.4457 13.6023ZM30.7973 30.128C30.7976 30.225 30.7787 30.3212 30.7416 30.4109C30.7046 30.5006 30.6503 30.5821 30.5816 30.6507C30.513 30.7193 30.4315 30.7737 30.3418 30.8107C30.2521 30.8477 30.1559 30.8666 30.0589 30.8664H26.3884C26.2914 30.8666 26.1952 30.8477 26.1055 30.8107C26.0158 30.7737 25.9343 30.7193 25.8656 30.6507C25.797 30.5821 25.7426 30.5006 25.7056 30.4109C25.6686 30.3212 25.6497 30.225 25.65 30.128V23.424C25.65 22.4222 25.9436 19.0367 23.031 19.0367C20.7748 19.0367 20.3149 21.3534 20.2242 22.3941V30.1366C20.2242 30.3306 20.1479 30.5168 20.0118 30.6549C19.8756 30.7931 19.6906 30.8722 19.4966 30.875H15.9514C15.8545 30.875 15.7586 30.8559 15.6691 30.8188C15.5796 30.7816 15.4984 30.7272 15.43 30.6586C15.3616 30.59 15.3074 30.5086 15.2705 30.419C15.2337 30.3294 15.2148 30.2335 15.2151 30.1366V15.6987C15.2148 15.6019 15.2337 15.5059 15.2705 15.4163C15.3074 15.3268 15.3616 15.2453 15.43 15.1767C15.4984 15.1082 15.5796 15.0537 15.6691 15.0166C15.7586 14.9795 15.8545 14.9603 15.9514 14.9603H19.4966C19.6924 14.9603 19.8802 15.0381 20.0187 15.1766C20.1572 15.3151 20.235 15.5029 20.235 15.6987V16.9467C21.0727 15.688 22.3142 14.7207 24.9634 14.7207C30.8318 14.7207 30.793 20.2005 30.793 23.2102L30.7973 30.128Z" fill="#A53DFF"/>
</g>
<defs>
<clipPath id="clip0_106_345">
<rect width="38" height="38" fill="white"/>
</clipPath>
</defs>
</svg>
