<svg width="38" height="38" viewBox="0 0 38 38" fill="none" xmlns="http://www.w3.org/2000/svg">
<rect width="38" height="38" rx="19" fill="#A53DFF"/>
<g clip-path="url(#clip0_103_198)">
<path d="M18.9986 7.73938C12.6491 7.73938 7.5 12.9086 7.5 19.2854C7.5 24.3856 10.7947 28.7125 15.366 30.2406C15.941 30.3469 16.1509 29.9904 16.1509 29.6843C16.1509 29.4097 16.1408 28.6838 16.1351 27.7206C12.9366 28.4178 12.261 26.1724 12.261 26.1724C11.7392 24.8384 10.9845 24.4834 10.9845 24.4834C9.93944 23.7675 11.0621 23.7819 11.0621 23.7819C12.2164 23.8638 12.8231 24.9721 12.8231 24.9721C13.8494 26.7359 15.5155 26.2271 16.171 25.9309C16.2745 25.1849 16.5721 24.676 16.9012 24.3871C14.3482 24.0953 11.663 23.1048 11.663 18.6816C11.663 17.4209 12.1115 16.3903 12.8475 15.5824C12.7282 15.2906 12.3343 14.1161 12.9596 12.5277C12.9596 12.5277 13.9256 12.2172 16.1221 13.7108C17.0393 13.4549 18.0225 13.3269 19.0014 13.3226C19.9775 13.3284 20.9622 13.4549 21.8807 13.7122C24.0758 12.2186 25.0404 12.5291 25.0404 12.5291C25.6671 14.119 25.2732 15.292 25.1554 15.5838C25.8928 16.3917 26.337 17.4224 26.337 18.6831C26.337 23.1178 23.6489 24.0938 21.0872 24.3799C21.4998 24.7364 21.8678 25.4408 21.8678 26.5174C21.8678 28.0613 21.8534 29.3062 21.8534 29.6843C21.8534 29.9933 22.0604 30.3527 22.6441 30.2391C27.2081 28.7096 30.5 24.3842 30.5 19.2854C30.5 12.9086 25.3509 7.73938 18.9986 7.73938Z" fill="white"/>
</g>
<defs>
<clipPath id="clip0_103_198">
<rect width="23" height="23" fill="white" transform="translate(7.5 7.5)"/>
</clipPath>
</defs>
</svg>
