<svg width="41" height="41" viewBox="0 0 41 41" fill="none" xmlns="http://www.w3.org/2000/svg">
<g clip-path="url(#clip0_103_191)">
<path d="M20.5 0C9.17855 0 0 9.17855 0 20.5C0 31.8214 9.17855 41 20.5 41C31.8214 41 41 31.8214 41 20.5C41 9.17855 31.8214 0 20.5 0Z" fill="#A53DFF"/>
<path d="M20.741 36.0619H20.732C16.0883 36.0304 12.5184 34.4994 10.1198 31.5101C7.98459 28.8502 6.88392 25.1493 6.84692 20.5112V20.4887C6.88392 15.8495 7.98459 12.1496 10.1198 9.48982C12.5173 6.5005 16.0883 4.96941 20.7309 4.93802H20.7488C24.3086 4.96156 27.2867 5.87726 29.6012 7.65723C31.7768 9.3307 33.3079 11.7158 34.153 14.7478L31.5078 15.4853C30.0765 10.3507 26.454 7.72562 20.7398 7.68414C16.967 7.71104 14.1144 8.89692 12.2594 11.2081C10.5221 13.3725 9.62427 16.4986 9.59176 20.4989C9.62539 24.5003 10.5232 27.6263 12.2594 29.7897C14.1144 32.1008 16.967 33.2866 20.7398 33.3135C24.1404 33.2889 26.3911 32.4965 28.2629 30.6628C30.3992 28.5701 30.36 26.0034 29.6763 24.4421C29.2739 23.5218 28.5431 22.7552 27.5578 22.1745C27.3102 23.9253 26.7531 25.3466 25.8923 26.4171C24.7445 27.846 23.1171 28.6274 21.0569 28.7383C19.4978 28.8223 17.9959 28.4537 16.8302 27.6993C15.4516 26.807 14.6445 25.4418 14.5582 23.8547C14.4741 22.3114 15.0862 20.8923 16.2809 19.8588C17.4231 18.8714 19.0293 18.2919 20.9269 18.1854C22.3257 18.1069 23.6337 18.1686 24.8431 18.3704C24.6828 17.4076 24.3578 16.6443 23.8736 16.0928C23.2078 15.334 22.1777 14.9462 20.8137 14.9372H20.7756C19.6805 14.9372 18.1931 15.2376 17.2448 16.6476L14.9661 15.1154C16.235 13.229 18.2962 12.1911 20.7744 12.1911H20.8304C24.9742 12.2169 27.4413 14.7511 27.6868 19.1774C27.8279 19.2368 27.9658 19.2983 28.1025 19.3623C30.036 20.2714 31.4494 21.6478 32.1914 23.3425C33.2249 25.7052 33.3201 29.5554 30.1829 32.6265C27.7865 34.9735 24.8768 36.0328 20.7486 36.0608H20.7397L20.7408 36.0619H20.741ZM22.0412 20.9001C21.7274 20.9001 21.409 20.909 21.0839 20.9281C18.7022 21.0626 17.2182 22.1532 17.3022 23.7067C17.3908 25.3342 19.1864 26.0907 20.9114 25.9977C22.4996 25.9124 24.5665 25.2948 24.9128 21.1858C24.0363 20.9987 23.0724 20.9 22.0412 20.9V20.9001Z" fill="white"/>
</g>
<defs>
<clipPath id="clip0_103_191">
<rect width="41" height="41" fill="white"/>
</clipPath>
</defs>
</svg>
